<?xml version="1.0" standalone="no"?>
<!DOCTYPE svg PUBLIC "-//W3C//DTD SVG 20010904//EN"
 "http://www.w3.org/TR/2001/REC-SVG-20010904/DTD/svg10.dtd">
<svg version="1.0" xmlns="http://www.w3.org/2000/svg"
 width="472.000000pt" height="472.000000pt" viewBox="0 0 472.000000 472.000000"
 preserveAspectRatio="xMidYMid meet">
<metadata>
Created by potrace 1.14, written by Peter Selinger 2001-2017
</metadata>
<g transform="translate(0.000000,472.000000) scale(0.100000,-0.100000)"
fill="#000000" stroke="none">
<path d="M2845 4594 c-236 -68 -439 -125 -450 -128 -42 -9 -114 -46 -245 -125
-12 -8 -255 -148 -414 -240 -23 -13 -81 -47 -131 -76 -49 -29 -110 -63 -135
-77 -25 -14 -83 -48 -130 -75 -109 -64 -542 -314 -595 -343 -22 -12 -80 -46
-130 -75 -49 -29 -109 -63 -131 -76 l-42 -24 20 -52 19 -51 67 19 c37 10 235
67 441 126 l373 106 19 -24 c17 -21 205 -293 732 -1059 93 -135 175 -251 181
-258 13 -13 127 51 1146 641 190 110 366 212 392 226 146 81 438 253 438 259
0 4 -36 59 -80 122 -44 63 -134 194 -200 290 -125 180 -310 449 -431 625 -38
55 -83 120 -100 145 -18 25 -63 91 -102 148 -38 56 -72 102 -76 101 -3 -1
-199 -57 -436 -125z"/>
<path d="M467 2883 c1 -43 2 -486 3 -985 l1 -907 117 -69 c169 -100 208 -122
215 -122 4 0 7 175 7 390 l0 389 53 -31 c28 -17 70 -41 92 -53 22 -12 56 -31
75 -42 101 -59 371 -216 570 -331 l225 -131 2 -396 c0 -218 3 -398 5 -399 24
-16 328 -186 331 -186 6 0 2 1968 -4 1973 -8 8 -304 176 -320 182 -14 5 -16
-31 -15 -380 1 -213 -1 -388 -4 -390 -4 -2 -315 175 -415 236 -16 10 -37 22
-45 26 -8 4 -87 49 -174 100 -87 51 -160 93 -162 93 -2 0 -43 24 -92 53 -49
30 -97 57 -106 60 -18 7 -17 -25 -19 472 l-2 330 -169 97 c-93 54 -169 98
-170 98 -1 0 0 -35 1 -77z"/>
<path d="M4070 2890 c-58 -33 -112 -64 -120 -69 -8 -5 -132 -77 -275 -159
-785 -451 -1169 -673 -1173 -677 -6 -6 -5 -1966 1 -1972 4 -4 307 167 327 184
3 2 5 182 5 398 0 216 2 395 5 398 5 3 122 71 475 274 105 60 307 177 450 260
143 83 276 160 295 170 19 11 57 33 84 50 l50 29 1 587 c1 408 -2 587 -9 586
-6 0 -58 -27 -116 -59z m-214 -717 l-1 -196 -60 -37 c-33 -20 -88 -52 -121
-71 -34 -19 -206 -117 -383 -219 -177 -102 -336 -193 -354 -203 -17 -11 -47
-28 -64 -39 -31 -19 -33 -19 -34 -1 -1 22 -1 354 0 370 1 6 29 27 64 46 34 18
139 78 232 132 284 164 567 327 615 353 25 14 59 34 75 44 17 10 31 18 31 18
1 0 1 -88 0 -197z"/>
</g>
</svg>
