<svg xmlns="http://www.w3.org/2000/svg" xmlns:xlink="http://www.w3.org/1999/xlink" width="620" height="620" viewBox="0 0 620 620">
  <defs>
    <clipPath id="clip-path">
      <rect id="Rectangle_165" data-name="Rectangle 165" width="620" height="620" transform="translate(673 230)" stroke="#707070" stroke-width="1"/>
    </clipPath>
  </defs>
  <g id="Mask_Group_8" data-name="Mask Group 8" transform="translate(-673 -230)" clip-path="url(#clip-path)">
    <g id="Group_13" data-name="Group 13" transform="translate(-119 -165)">
      <g id="Group_11" data-name="Group 11" transform="translate(-524.441 54.935)">
        <g id="Path_40" data-name="Path 40" transform="translate(611.05 204.281)" fill="none">
          <path d="M866.788,430.971l67.6-38.307Z" stroke="none"/>
          <path d="M 866.7880859375 430.970703125 L 934.38818359375 392.663818359375 L 866.7880859375 430.970703125 M 869.253173828125 435.32080078125 L 864.322998046875 426.62060546875 L 931.923095703125 388.313720703125 L 936.853271484375 397.013916015625 L 869.253173828125 435.32080078125 Z" stroke="none" fill="#d2aa62"/>
        </g>
        <g id="Path_32" data-name="Path 32" transform="translate(1365.864 438.527)">
          <path d="M 113.3350830078125 331.2694702148438 L 105.8089981079102 326.8635559082031 L -2.992390632629395 263.1688842773438 L -5.466307163238525 261.7205810546875 L -5.466307163238525 258.8539123535156 L -5.466307163238525 135.9020080566406 L -5.466307163238525 127.2410049438477 L 2.034026145935059 131.5720520019531 L 110.8354187011719 194.3993988037109 L 113.3350830078125 195.8428344726563 L 113.3350830078125 198.7293395996094 L 113.3350830078125 322.548583984375 L 113.3350830078125 331.2694702148438 Z" stroke="none"/>
          <path d="M 108.335090637207 322.548583984375 L 108.335090637207 198.7293548583984 L -0.4663127958774567 135.9019775390625 L -0.4663127958774567 258.8539123535156 L 108.335090637207 322.548583984375 M 118.335090637207 339.9903869628906 L 103.2829513549805 331.1785278320313 L -5.51844596862793 267.4838562011719 L -10.46631240844727 264.5872802734375 L -10.46631240844727 258.8539123535156 L -10.46631240844727 135.9019775390625 L -10.46631240844727 118.5799789428711 L 4.53432035446167 127.2421112060547 L 113.3357238769531 190.0694732666016 L 118.335090637207 192.9563446044922 L 118.335090637207 198.7293548583984 L 118.335090637207 322.548583984375 L 118.335090637207 339.9903869628906 Z" stroke="none" fill="#d2aa62"/>
        </g>
        <path id="Path_41" data-name="Path 41" d="M843.679,252.24c-40.322,23.27-82.419,47.595-122.741,70.872-9.531-13.754-20.828-30.139-30.315-43.893h0l-30.293-43.9c39.838-23.013,82.954-47.881,122.763-70.879C802.983,193.281,823.782,223.4,843.679,252.24Z" transform="translate(760.641 279.923)" stroke="#d2aa62" stroke-width="11"/>
        <path id="Path_42" data-name="Path 42" d="M763.231,164.46c-40.205,23.2-83.712,48.28-123.888,71.5L577.82,253.5c19.38-11.172,42.531-24.579,61.948-35.752l30.963-17.876h0l15.481-8.938h0l15.474-8.938,23.107-6.562Z" transform="translate(782.66 278.519)" stroke="#d2aa62" stroke-width="11"/>
      </g>
      <g id="hp3" transform="translate(434 456)">
        <g id="Path_20" data-name="Path 20" transform="translate(562 45.344)">
          <path d="M 175.0506286621094 445.4239501953125 L 167.513916015625 441.037109375 L 156.1641998291016 434.4308776855469 L 144.8266143798828 427.8362426757813 L 133.4877014160156 421.2408142089844 L 131.0087432861328 419.7989196777344 L 131.0016632080078 416.9311218261719 L 130.9692077636719 403.7511596679688 L 130.9367065429688 390.5711975097656 L 130.9150390625 377.3870849609375 L 130.8825378417969 364.2220458984375 L 130.8500823974609 351.0421447753906 L 130.8246612548828 340.7332763671875 L 121.9799118041992 335.6006469726563 L 110.6549987792969 329.0395812988281 L 99.33899688720703 322.4881896972656 L 88.03083038330078 315.9350891113281 L 65.43791198730469 302.8298950195313 L 54.14545440673828 296.2904052734375 L 42.87103652954102 289.7597351074219 L 39.12479400634766 287.5861206054688 L 39.13578796386719 292.0379028320313 L 39.16828918457031 305.1744995117188 L 39.20078659057617 318.3219909667969 L 39.24403762817383 331.4654235839844 L 39.27658081054688 344.6061096191406 L 39.30907821655273 357.7427978515625 L 39.33061981201172 366.4608154296875 L 31.79491233825684 362.0770874023438 L 20.53182983398438 355.5250244140625 L 9.280829429626465 348.9844970703125 L 6.793746471405029 347.5386657714844 L 6.793746471405029 347.52783203125 L -1.971378564834595 342.4324035644531 L -4.451378345489502 340.9906921386719 L -4.458503723144531 338.1221313476563 L -4.491003513336182 324.996337890625 L -4.534253597259521 311.8746032714844 L -4.566795349121094 298.7338256835938 L -4.599295139312744 285.6080322265625 L -4.642586708068848 272.4754943847656 L -4.675086975097656 259.3346557617188 L -4.707586765289307 246.1980285644531 L -4.75087833404541 233.0655364990234 L -4.783378601074219 219.9246978759766 L -4.815878391265869 206.7881164550781 L -4.859170436859131 193.6555786132813 L -4.891711711883545 180.5039978027344 L -4.924211978912354 167.3564910888672 L -4.967462062835693 154.2239532470703 L -5.000003337860107 141.0723724365234 L -5.021461963653564 132.3936157226563 L 2.49728798866272 136.7283325195313 L 13.74953842163086 143.2154541015625 L 25.01082992553711 149.7014465332031 L 36.28607940673828 156.2001953125 L 38.78211975097656 157.6388702392578 L 38.78924560546875 160.5198211669922 L 38.82174682617188 173.6781158447266 L 38.85420608520508 186.8255767822266 L 38.89749526977539 199.979736328125 L 38.93003845214844 213.1421966552734 L 38.96253967285156 226.2896118164063 L 38.98789596557617 236.5609741210938 L 47.77195358276367 241.6407012939453 L 59.05803680419922 248.1718597412109 L 70.34274291992188 254.7023620605469 L 81.63649749755859 261.231689453125 L 92.94112396240234 267.7610473632813 L 92.94332885742188 267.7623291015625 L 92.94557952880859 267.7636108398438 L 104.2627868652344 274.3157348632813 L 115.5769119262695 280.8551940917969 L 126.8972015380859 287.4090881347656 L 130.7095184326172 289.6119995117188 L 130.6984558105469 285.12060546875 L 130.6659545898438 271.9298706054688 L 130.6334533691406 258.7390441894531 L 130.6117858886719 245.5440826416016 L 130.5793304443359 232.3573608398438 L 130.5468292236328 219.1666107177734 L 130.5254516601563 210.4923706054688 L 138.0422058105469 214.8214874267578 L 149.3810729980469 221.3519134521484 L 160.7411651611328 227.8929138183594 L 172.0927124023438 234.4351654052734 L 174.5889129638672 235.8738250732422 L 174.5959930419922 238.7549133300781 L 174.6284484863281 251.9673614501953 L 174.6501159667969 265.1731262207031 L 174.6826171875 278.37060546875 L 174.7151184082031 291.5722351074219 L 174.7367858886719 304.7779541015625 L 174.7692413330078 317.9647521972656 L 174.8017425537109 331.1663208007813 L 174.8234100341797 344.3720397949219 L 174.8558654785156 357.5587463378906 L 174.8883666992188 370.7494812011719 L 174.9100341796875 383.9444580078125 L 174.9425354003906 397.1310729980469 L 174.9750366210938 410.3218994140625 L 174.9966583251953 423.5168762207031 L 175.0291595458984 436.7034912109375 L 175.0506286621094 445.4239501953125 Z" stroke="none"/>
          <path d="M 170.0291748046875 436.7158203125 L 169.9966735839844 423.5250549316406 L 169.9750366210938 410.3342590332031 L 169.9425354003906 397.1434020996094 L 169.9100341796875 383.9526672363281 L 169.8883819580078 370.7618713378906 L 169.8558807373047 357.571044921875 L 169.8234252929688 344.3802490234375 L 169.8017272949219 331.1786193847656 L 169.7692260742188 317.9770202636719 L 169.7367858886719 304.7861633300781 L 169.7151336669922 291.5845031738281 L 169.6826324462891 278.3829040527344 L 169.6501312255859 265.1813049316406 L 169.6284790039063 251.9796600341797 L 169.5959777832031 238.7672119140625 L 158.2462310791016 232.2259521484375 L 146.8857269287109 225.6847076416016 L 135.5468292236328 219.1543121337891 L 135.5793304443359 232.3451080322266 L 135.6117858886719 245.5358581542969 L 135.6334838867188 258.7267150878906 L 135.6659240722656 271.9175720214844 L 135.6984252929688 285.1082458496094 L 135.7309265136719 298.2882690429688 L 124.3920288085938 291.7362060546875 L 113.0748291015625 285.1841125488281 L 101.7575759887695 278.6428527832031 L 90.44037628173828 272.0907592773438 L 79.13397979736328 265.5603637695313 L 67.83837890625 259.0299682617188 L 56.55363082885742 252.49951171875 L 45.26892852783203 245.9691162109375 L 33.99497985839844 239.4495086669922 L 33.96252822875977 226.302001953125 L 33.93003082275391 213.1545562744141 L 33.89752960205078 199.9962158203125 L 33.85422897338867 186.8379058837891 L 33.82173156738281 173.6904602050781 L 33.78923034667969 160.5321655273438 L 22.51532936096191 154.0342102050781 L 11.25222969055176 147.5471038818359 L -2.022705120907631e-05 141.0600128173828 L 0.03247977420687675 154.2075042724609 L 0.07582977414131165 167.3441619873047 L 0.1082797721028328 180.4916076660156 L 0.1407797783613205 193.6391143798828 L 0.1841297745704651 206.7757568359375 L 0.2165797799825668 219.9124145507813 L 0.2490797787904739 233.0490112304688 L 0.2924297749996185 246.1856536865234 L 0.3248797655105591 259.3222961425781 L 0.3573797643184662 272.4590148925781 L 0.400729775428772 285.5956726074219 L 0.4331797659397125 298.7214660644531 L 0.4656797647476196 311.8581237792969 L 0.509029746055603 324.9839477539063 L 0.541479766368866 338.1097717285156 L 11.79372978210449 344.6509704589844 L 11.79372978210449 344.661865234375 L 23.04598045349121 351.2030944824219 L 34.30907821655273 357.7551574707031 L 34.27658081054688 344.6184997558594 L 34.24407958984375 331.4818725585938 L 34.20077896118164 318.3343505859375 L 34.16828155517578 305.1868591308594 L 34.13578033447266 292.0502624511719 L 34.10327911376953 278.8919677734375 L 45.37723159790039 285.4331665039063 L 56.65113067626953 291.963623046875 L 67.94667816162109 298.5048522949219 L 90.53782653808594 311.6090087890625 L 101.8442306518555 318.1610717773438 L 113.1614303588867 324.7131958007813 L 124.4894790649414 331.276123046875 L 135.8175811767578 337.8498229980469 L 135.8500823974609 351.0298156738281 L 135.8825225830078 364.209716796875 L 135.9150238037109 377.3788452148438 L 135.9366760253906 390.5588684082031 L 135.9691772460938 403.7388610839844 L 136.0016784667969 416.9188232421875 L 147.340576171875 423.5142211914063 L 158.6794738769531 430.109619140625 L 170.0291748046875 436.7158203125 M 180.0721282958984 454.1320190429688 L 164.9986724853516 445.3583984375 L 153.6489868164063 438.752197265625 L 142.3126831054688 432.1582641601563 L 130.9737854003906 425.5628662109375 L 126.0158309936523 422.6790466308594 L 126.0017318725586 416.9434509277344 L 125.9692306518555 403.7635192871094 L 125.9367294311523 390.58349609375 L 125.9150314331055 377.3952941894531 L 125.8825759887695 364.2344055175781 L 125.8501281738281 351.0544128417969 L 125.831787109375 343.6168518066406 L 119.4703826904297 339.9253234863281 L 108.1484832763672 333.365966796875 L 96.83383178710938 326.8153076171875 L 85.52388000488281 320.2611999511719 L 62.92913055419922 307.1549682617188 L 51.63977813720703 300.6173095703125 L 44.14624786376953 296.2766418457031 L 44.16822814941406 305.162109375 L 44.20072937011719 318.3096618652344 L 44.2440299987793 331.4489135742188 L 44.27653121948242 344.59375 L 44.30902862548828 357.7304077148438 L 44.35218048095703 375.1664733886719 L 29.28072929382324 366.3990173339844 L 18.01762962341309 359.8469543457031 L 6.767979621887207 353.3071594238281 L -4.490520000457764 346.75146484375 L -9.444320678710938 343.8669128417969 L -9.458470344543457 338.1344604492188 L -9.490920066833496 325.0086669921875 L -9.534270286560059 311.8911437988281 L -9.566770553588867 298.7462158203125 L -9.599220275878906 285.620361328125 L -9.642570495605469 272.4920043945313 L -9.675069808959961 259.3470458984375 L -9.707520484924316 246.2103576660156 L -9.750869750976563 233.0820159912109 L -9.783370018005371 219.9371643066406 L -9.815820693969727 206.8004608154297 L -9.859169960021973 193.6721038818359 L -9.891670227050781 180.5163116455078 L -9.92411994934082 167.3688659667969 L -9.967470169067383 154.2405090332031 L -9.999970436096191 141.0847015380859 L -10.04292011260986 123.7273101806641 L 4.994579792022705 132.3966064453125 L 16.24682998657227 138.8837127685547 L 27.50627899169922 145.3687591552734 L 38.78287887573242 151.8682098388672 L 43.77497863769531 154.7455596923828 L 43.78918075561523 160.5074615478516 L 43.82167816162109 173.6657562255859 L 43.85417938232422 186.8132019042969 L 43.89748001098633 199.9633026123047 L 43.92998123168945 213.1298522949219 L 43.96247863769531 226.2773132324219 L 43.98073196411133 233.6724395751953 L 50.27502822875977 237.3123626708984 L 61.5623779296875 243.8443145751953 L 72.84712982177734 250.374755859375 L 84.13907623291016 256.9030456542969 L 95.44187927246094 263.4313659667969 L 106.7679824829102 269.9886169433594 L 118.0789794921875 276.5262451171875 L 125.6881256103516 280.9315795898438 L 125.6659774780273 271.9421997070313 L 125.6335296630859 258.7513122558594 L 125.6117782592773 245.5523071289063 L 125.5793762207031 232.3697052001953 L 125.5468826293945 219.178955078125 L 125.5041275024414 201.8305053710938 L 140.5375823974609 210.4887084960938 L 151.8764801025391 217.0191040039063 L 163.236083984375 223.5598602294922 L 174.5893859863281 230.1031646728516 L 179.581787109375 232.9804534912109 L 179.5959320068359 238.7426147460938 L 179.6284332275391 251.9550628662109 L 179.6501312255859 265.1649169921875 L 179.6825866699219 278.3583068847656 L 179.7150726318359 291.5599060058594 L 179.7367858886719 304.7697448730469 L 179.7691802978516 317.9524230957031 L 179.8016815185547 331.1540222167969 L 179.8234252929688 344.3638000488281 L 179.8558349609375 357.5464477539063 L 179.8883361816406 370.7372131347656 L 179.9100341796875 383.9362487792969 L 179.9424743652344 397.1187438964844 L 179.9749755859375 410.3096008300781 L 179.9966735839844 423.5086669921875 L 180.0291290283203 436.691162109375 L 180.0721282958984 454.1320190429688 Z" stroke="none" fill="#d2aa62"/>
        </g>
        <g id="Path_21" data-name="Path 21" transform="translate(10.61 -118.876)">
          <path d="M 749.4299926757813 609.6686401367188 L 749.4299926757813 601.03369140625 L 749.4299926757813 587.8143310546875 L 749.4299926757813 574.594970703125 L 749.4299926757813 561.3755493164063 L 749.4299926757813 548.1561889648438 L 749.4299926757813 534.9368896484375 L 749.4299926757813 521.7174682617188 L 749.4299926757813 508.4872131347656 L 749.4299926757813 495.2678833007813 L 749.4299926757813 482.0375671386719 L 749.4299926757813 468.8074035644531 L 749.4299926757813 455.5880432128906 L 749.4299926757813 442.3577880859375 L 749.4299926757813 429.1275939941406 L 749.4299926757813 402.6562194824219 L 749.4299926757813 399.7559509277344 L 751.947509765625 398.3160095214844 L 763.332763671875 391.8040466308594 L 774.7052001953125 385.2930908203125 L 786.07958984375 378.7810363769531 L 797.4285278320313 372.2710876464844 L 808.7811889648438 365.7590942382813 L 820.1338500976563 359.2470703125 L 831.4610595703125 352.7371215820313 L 842.7919311523438 346.2251281738281 L 854.1229248046875 339.7130737304688 L 865.428466796875 333.2031555175781 L 876.7123413085938 326.6932373046875 L 888.0250244140625 320.1791076660156 L 899.3090209960938 313.6692199707031 L 899.327880859375 313.6582946777344 L 899.3468017578125 313.6475830078125 L 921.8458862304688 300.9273986816406 L 929.3314819335938 296.6953430175781 L 929.306640625 305.2943725585938 L 929.2306518554688 331.6354675292969 L 929.2306518554688 344.7970275878906 L 929.2306518554688 344.8042602539063 L 929.2306518554688 344.8114624023438 L 929.1546630859375 371.1416625976563 L 929.1546630859375 384.3031921386719 L 929.1546630859375 384.3104248046875 L 929.1546630859375 384.317626953125 L 929.0787353515625 410.6478576660156 L 929.0787353515625 423.798583984375 L 929.0787353515625 426.6850280761719 L 926.5791625976563 428.1284484863281 L 915.302490234375 434.6404418945313 L 904.0131225585938 441.1535034179688 L 892.7256469726563 447.66552734375 L 881.425537109375 454.1785888671875 L 870.1145629882813 460.6916198730469 L 858.8095092773438 467.2012634277344 L 847.4991455078125 473.7619018554688 L 847.4913940429688 473.7664184570313 L 847.4835815429688 473.7709045410156 L 836.1658935546875 480.2815856933594 L 824.846435546875 486.8412170410156 L 824.83203125 486.8495788574219 L 824.8175659179688 486.8578186035156 L 813.3057861328125 493.4266967773438 L 801.9810180664063 499.9830627441406 L 801.9810180664063 499.9830932617188 L 793.1187744140625 505.1258850097656 L 793.1187744140625 515.4442138671875 L 793.1187744140625 528.6527709960938 L 793.1187744140625 541.861328125 L 793.1187744140625 555.06982421875 L 793.1187744140625 568.2783203125 L 793.1187744140625 581.48681640625 L 793.1187744140625 584.3628540039063 L 790.6327514648438 585.8088989257813 L 779.269287109375 592.4185180664063 L 767.88330078125 599.0767211914063 L 767.8658447265625 599.0869750976563 L 767.8483276367188 599.0970458984375 L 756.9190063476563 605.3701782226563 L 749.4299926757813 609.6686401367188 Z M 793.422607421875 425.6202087402344 L 793.422607421875 435.9434509277344 L 793.422607421875 449.1520080566406 L 793.422607421875 453.7033081054688 L 797.27197265625 451.4768981933594 L 808.62451171875 444.9106750488281 L 819.964599609375 438.3453979492188 L 819.971435546875 438.3414001464844 L 819.9783325195313 438.3374633789063 L 831.3091430664063 431.8254699707031 L 842.64013671875 425.3134460449219 L 853.9708862304688 418.8014831542969 L 865.2765502929688 412.29150390625 L 876.5730590820313 405.7805786132813 L 885.3790283203125 400.7099609375 L 885.3790283203125 390.4136962890625 L 885.3790283203125 377.2377014160156 L 885.3790283203125 372.7688598632813 L 881.5775146484375 374.9599609375 L 870.2665405273438 381.4729919433594 L 858.9573364257813 387.9850463867188 L 847.6229248046875 394.4990844726563 L 836.2919921875 401.0111083984375 L 824.961181640625 407.5231323242188 L 813.6047973632813 414.0372009277344 L 802.2649536132813 420.5481567382813 L 793.422607421875 425.6202087402344 Z" stroke="none"/>
          <path d="M 924.306640625 305.2799682617188 L 901.8076171875 318.0001220703125 L 890.5200805664063 324.5121459960938 L 879.2109375 331.024169921875 L 867.9234619140625 337.5361938476563 L 856.6143188476563 344.0481567382813 L 845.2833862304688 350.5601806640625 L 833.9525146484375 357.0722045898438 L 822.6216430664063 363.5841674804688 L 811.2689819335938 370.0962524414063 L 799.9163818359375 376.6082153320313 L 788.5638427734375 383.1201782226563 L 777.189453125 389.6322631835938 L 765.815185546875 396.1442260742188 L 754.4299926757813 402.6562194824219 L 754.4299926757813 429.1275939941406 L 754.4299926757813 442.3577880859375 L 754.4299926757813 455.5880432128906 L 754.4299926757813 468.807373046875 L 754.4299926757813 482.0375671386719 L 754.4299926757813 495.267822265625 L 754.4299926757813 508.4872436523438 L 754.4299926757813 521.7174682617188 L 754.4299926757813 534.9368896484375 L 754.4299926757813 548.1561889648438 L 754.4299926757813 561.37548828125 L 754.4299926757813 574.594970703125 L 754.4299926757813 587.8143310546875 L 754.4299926757813 601.03369140625 L 765.3593139648438 594.760498046875 L 776.7553100585938 588.096435546875 L 788.1187744140625 581.48681640625 L 788.1187744140625 568.2783203125 L 788.1187744140625 555.06982421875 L 788.1187744140625 541.861328125 L 788.1187744140625 528.6527709960938 L 788.1187744140625 515.4442138671875 L 788.1187744140625 502.2464904785156 L 799.471435546875 495.6585388183594 L 810.813232421875 489.0922241210938 L 822.3394775390625 482.5150756835938 L 833.6703491210938 475.9488830566406 L 844.9903564453125 469.4368896484375 L 856.3104248046875 462.8706359863281 L 867.6195678710938 456.358642578125 L 878.9287109375 449.8466186523438 L 890.2269897460938 443.3346252441406 L 901.5145263671875 436.8225708007813 L 912.8020629882813 430.3105773925781 L 924.0787353515625 423.798583984375 L 924.0787353515625 410.6334228515625 L 924.1546630859375 384.30322265625 L 924.1546630859375 371.1272583007813 L 924.2306518554688 344.7970581054688 L 924.2306518554688 331.6210327148438 L 924.306640625 305.2799682617188 M 788.422607421875 462.371337890625 L 788.422607421875 449.1519775390625 L 788.422607421875 435.9434204101563 L 788.422607421875 422.7240905761719 L 799.7753295898438 416.2120666503906 L 811.1170043945313 409.7000732421875 L 822.4697265625 403.1880798339844 L 833.8005981445313 396.676025390625 L 845.1315307617188 390.1640014648438 L 856.4623413085938 383.6520385742188 L 867.7715454101563 377.1399536132813 L 879.0806884765625 370.6279907226563 L 890.3790283203125 364.1160278320313 L 890.3790283203125 377.2377319335938 L 890.3790283203125 390.4136962890625 L 890.3790283203125 403.6005249023438 L 879.06982421875 410.1125183105469 L 867.7715454101563 416.6245422363281 L 856.4623413085938 423.1365356445313 L 845.1315307617188 429.6485290527344 L 833.8005981445313 436.1605224609375 L 822.4697265625 442.6725158691406 L 811.1278686523438 449.2388305664063 L 799.7753295898438 455.8050842285156 L 788.422607421875 462.371337890625 M 934.3562622070313 288.1107177734375 L 934.3065795898438 305.308837890625 L 934.2305908203125 331.64990234375 L 934.2306518554688 344.7970581054688 L 934.1546020507813 371.1561279296875 L 934.1546630859375 384.30322265625 L 934.0786743164063 410.6622924804688 L 934.0787353515625 423.798583984375 L 934.0787353515625 429.5714721679688 L 929.0795288085938 432.4583740234375 L 917.8028564453125 438.9703674316406 L 906.51171875 445.4844360351563 L 895.2242431640625 451.9964904785156 L 883.92236328125 458.5105895996094 L 872.609619140625 465.0246276855469 L 861.3004760742188 471.53662109375 L 850.0078125 478.0869750976563 L 838.6567993164063 484.616943359375 L 827.3534545898438 491.1672668457031 L 815.7693481445313 497.7776794433594 L 804.4818115234375 504.3127746582031 L 798.1187744140625 508.0052795410156 L 798.1187744140625 515.4442138671875 L 798.1187744140625 528.6527709960938 L 798.1187744140625 541.861328125 L 798.1187744140625 555.06982421875 L 798.1187744140625 568.2783203125 L 798.1187744140625 581.48681640625 L 798.1187744140625 587.2388916015625 L 793.1466674804688 590.1309204101563 L 781.783203125 596.7406005859375 L 770.4072265625 603.3929443359375 L 759.4080200195313 609.70654296875 L 744.4299926757813 618.3035888671875 L 744.4299926757813 601.03369140625 L 744.4299926757813 587.8143310546875 L 744.4299926757813 574.594970703125 L 744.4299926757813 561.37548828125 L 744.4299926757813 548.1561889648438 L 744.4299926757813 534.9368896484375 L 744.4299926757813 521.7174682617188 L 744.4299926757813 508.4872436523438 L 744.4299926757813 495.267822265625 L 744.4299926757813 482.0375671386719 L 744.4299926757813 468.807373046875 L 744.4299926757813 455.5880432128906 L 744.4299926757813 442.3577880859375 L 744.4299926757813 429.1275939941406 L 744.4299926757813 402.6562194824219 L 744.4299926757813 396.8557434082031 L 749.4650268554688 393.975830078125 L 760.8502197265625 387.4638061523438 L 772.220947265625 380.9539184570313 L 783.5952758789063 374.4418334960938 L 794.9407348632813 367.9339599609375 L 806.2933349609375 361.4219970703125 L 817.6459350585938 354.909912109375 L 828.9696655273438 348.4020385742188 L 840.300537109375 341.8900146484375 L 851.6314697265625 335.3779907226563 L 862.9334106445313 328.8701782226563 L 874.2137451171875 322.3623046875 L 885.530029296875 315.8461303710938 L 896.8104248046875 309.3382568359375 L 919.3850708007813 296.5748901367188 L 934.3562622070313 288.1107177734375 Z M 880.3790283203125 397.8193359375 L 880.3790283203125 390.4136962890625 L 880.3790283203125 381.419677734375 L 872.7615356445313 385.805908203125 L 861.452392578125 392.3180541992188 L 850.1143798828125 398.8341369628906 L 838.783447265625 405.34619140625 L 827.45263671875 411.8581848144531 L 816.0925903320313 418.3743896484375 L 804.754638671875 424.88427734375 L 798.422607421875 428.516357421875 L 798.422607421875 435.9434204101563 L 798.422607421875 445.0352478027344 L 806.12109375 440.5824890136719 L 817.4594116210938 434.0182800292969 L 828.8177490234375 427.4903869628906 L 840.1487426757813 420.9783935546875 L 851.4794921875 414.4664306640625 L 862.7815551757813 407.9585266113281 L 874.076171875 401.4485778808594 L 880.3790283203125 397.8193359375 Z" stroke="none" fill="#d2aa62"/>
        </g>
        <path id="Path_22" data-name="Path 22" d="M940.735,298.717C879.068,334.3,814.688,371.506,753.021,407.1c-14.576-21.034-31.854-46.093-46.362-67.127h0L660.33,272.839c60.927-35.195,126.866-73.227,187.748-108.4C878.5,208.549,910.305,254.608,940.735,298.717Z" transform="translate(-5.818 -146.674)" stroke="#d2aa62" stroke-width="11"/>
        <path id="Path_23" data-name="Path 23" d="M861.378,164.46C799.89,199.943,733.352,238.3,671.91,273.814l-94.09,26.815c29.638-17.087,65.044-37.591,94.74-54.677l47.353-27.339h0l23.676-13.669h0l23.665-13.669,35.338-10.036Z" transform="translate(-15.82 -148.81)" stroke="#d2aa62" stroke-width="11"/>
        <g id="Path_58" data-name="Path 58" transform="translate(10.61 -118.876)">
          <path d="M 749.4299926757813 609.6686401367188 L 749.4299926757813 601.03369140625 L 749.4299926757813 587.8143310546875 L 749.4299926757813 574.594970703125 L 749.4299926757813 561.3755493164063 L 749.4299926757813 548.1561889648438 L 749.4299926757813 534.9368896484375 L 749.4299926757813 521.7174682617188 L 749.4299926757813 508.4872131347656 L 749.4299926757813 495.2678833007813 L 749.4299926757813 482.0375671386719 L 749.4299926757813 468.8074035644531 L 749.4299926757813 455.5880432128906 L 749.4299926757813 442.3577880859375 L 749.4299926757813 429.1275939941406 L 749.4299926757813 402.6562194824219 L 749.4299926757813 399.7559509277344 L 751.947509765625 398.3160095214844 L 763.332763671875 391.8040466308594 L 774.7052001953125 385.2930908203125 L 786.07958984375 378.7810363769531 L 797.4285278320313 372.2710876464844 L 808.7811889648438 365.7590942382813 L 820.1338500976563 359.2470703125 L 831.4610595703125 352.7371215820313 L 842.7919311523438 346.2251281738281 L 854.1229248046875 339.7130737304688 L 865.428466796875 333.2031555175781 L 876.7123413085938 326.6932373046875 L 888.0250244140625 320.1791076660156 L 899.3090209960938 313.6692199707031 L 899.327880859375 313.6582946777344 L 899.3468017578125 313.6475830078125 L 921.8458862304688 300.9273986816406 L 929.3314819335938 296.6953430175781 L 929.306640625 305.2943725585938 L 929.2306518554688 331.6354675292969 L 929.2306518554688 344.7970275878906 L 929.2306518554688 344.8042602539063 L 929.2306518554688 344.8114624023438 L 929.1546630859375 371.1416625976563 L 929.1546630859375 384.3031921386719 L 929.1546630859375 384.3104248046875 L 929.1546630859375 384.317626953125 L 929.0787353515625 410.6478576660156 L 929.0787353515625 423.798583984375 L 929.0787353515625 426.6850280761719 L 926.5791625976563 428.1284484863281 L 915.302490234375 434.6404418945313 L 904.0131225585938 441.1535034179688 L 892.7256469726563 447.66552734375 L 881.425537109375 454.1785888671875 L 870.1145629882813 460.6916198730469 L 858.8095092773438 467.2012634277344 L 847.4991455078125 473.7619018554688 L 847.4913940429688 473.7664184570313 L 847.4835815429688 473.7709045410156 L 836.1658935546875 480.2815856933594 L 824.846435546875 486.8412170410156 L 824.83203125 486.8495788574219 L 824.8175659179688 486.8578186035156 L 813.3057861328125 493.4266967773438 L 801.9810180664063 499.9830627441406 L 801.9810180664063 499.9830932617188 L 793.1187744140625 505.1258850097656 L 793.1187744140625 515.4442138671875 L 793.1187744140625 528.6527709960938 L 793.1187744140625 541.861328125 L 793.1187744140625 555.06982421875 L 793.1187744140625 568.2783203125 L 793.1187744140625 581.48681640625 L 793.1187744140625 584.3628540039063 L 790.6327514648438 585.8088989257813 L 779.269287109375 592.4185180664063 L 767.88330078125 599.0767211914063 L 767.8658447265625 599.0869750976563 L 767.8483276367188 599.0970458984375 L 756.9190063476563 605.3701782226563 L 749.4299926757813 609.6686401367188 Z M 793.422607421875 425.6202087402344 L 793.422607421875 435.9434509277344 L 793.422607421875 449.1520080566406 L 793.422607421875 453.7033081054688 L 797.27197265625 451.4768981933594 L 808.62451171875 444.9106750488281 L 819.964599609375 438.3453979492188 L 819.971435546875 438.3414001464844 L 819.9783325195313 438.3374633789063 L 831.3091430664063 431.8254699707031 L 842.64013671875 425.3134460449219 L 853.9708862304688 418.8014831542969 L 865.2765502929688 412.29150390625 L 876.5730590820313 405.7805786132813 L 885.3790283203125 400.7099609375 L 885.3790283203125 390.4136962890625 L 885.3790283203125 377.2377014160156 L 885.3790283203125 372.7688598632813 L 881.5775146484375 374.9599609375 L 870.2665405273438 381.4729919433594 L 858.9573364257813 387.9850463867188 L 847.6229248046875 394.4990844726563 L 836.2919921875 401.0111083984375 L 824.961181640625 407.5231323242188 L 813.6047973632813 414.0372009277344 L 802.2649536132813 420.5481567382813 L 793.422607421875 425.6202087402344 Z" stroke="none"/>
          <path d="M 924.306640625 305.2799682617188 L 901.8076171875 318.0001220703125 L 890.5200805664063 324.5121459960938 L 879.2109375 331.024169921875 L 867.9234619140625 337.5361938476563 L 856.6143188476563 344.0481567382813 L 845.2833862304688 350.5601806640625 L 833.9525146484375 357.0722045898438 L 822.6216430664063 363.5841674804688 L 811.2689819335938 370.0962524414063 L 799.9163818359375 376.6082153320313 L 788.5638427734375 383.1201782226563 L 777.189453125 389.6322631835938 L 765.815185546875 396.1442260742188 L 754.4299926757813 402.6562194824219 L 754.4299926757813 429.1275939941406 L 754.4299926757813 442.3577880859375 L 754.4299926757813 455.5880432128906 L 754.4299926757813 468.807373046875 L 754.4299926757813 482.0375671386719 L 754.4299926757813 495.267822265625 L 754.4299926757813 508.4872436523438 L 754.4299926757813 521.7174682617188 L 754.4299926757813 534.9368896484375 L 754.4299926757813 548.1561889648438 L 754.4299926757813 561.37548828125 L 754.4299926757813 574.594970703125 L 754.4299926757813 587.8143310546875 L 754.4299926757813 601.03369140625 L 765.3593139648438 594.760498046875 L 776.7553100585938 588.096435546875 L 788.1187744140625 581.48681640625 L 788.1187744140625 568.2783203125 L 788.1187744140625 555.06982421875 L 788.1187744140625 541.861328125 L 788.1187744140625 528.6527709960938 L 788.1187744140625 515.4442138671875 L 788.1187744140625 502.2464904785156 L 799.471435546875 495.6585388183594 L 810.813232421875 489.0922241210938 L 822.3394775390625 482.5150756835938 L 833.6703491210938 475.9488830566406 L 844.9903564453125 469.4368896484375 L 856.3104248046875 462.8706359863281 L 867.6195678710938 456.358642578125 L 878.9287109375 449.8466186523438 L 890.2269897460938 443.3346252441406 L 901.5145263671875 436.8225708007813 L 912.8020629882813 430.3105773925781 L 924.0787353515625 423.798583984375 L 924.0787353515625 410.6334228515625 L 924.1546630859375 384.30322265625 L 924.1546630859375 371.1272583007813 L 924.2306518554688 344.7970581054688 L 924.2306518554688 331.6210327148438 L 924.306640625 305.2799682617188 M 788.422607421875 462.371337890625 L 788.422607421875 449.1519775390625 L 788.422607421875 435.9434204101563 L 788.422607421875 422.7240905761719 L 799.7753295898438 416.2120666503906 L 811.1170043945313 409.7000732421875 L 822.4697265625 403.1880798339844 L 833.8005981445313 396.676025390625 L 845.1315307617188 390.1640014648438 L 856.4623413085938 383.6520385742188 L 867.7715454101563 377.1399536132813 L 879.0806884765625 370.6279907226563 L 890.3790283203125 364.1160278320313 L 890.3790283203125 377.2377319335938 L 890.3790283203125 390.4136962890625 L 890.3790283203125 403.6005249023438 L 879.06982421875 410.1125183105469 L 867.7715454101563 416.6245422363281 L 856.4623413085938 423.1365356445313 L 845.1315307617188 429.6485290527344 L 833.8005981445313 436.1605224609375 L 822.4697265625 442.6725158691406 L 811.1278686523438 449.2388305664063 L 799.7753295898438 455.8050842285156 L 788.422607421875 462.371337890625 M 934.3562622070313 288.1107177734375 L 934.3065795898438 305.308837890625 L 934.2305908203125 331.64990234375 L 934.2306518554688 344.7970581054688 L 934.1546020507813 371.1561279296875 L 934.1546630859375 384.30322265625 L 934.0786743164063 410.6622924804688 L 934.0787353515625 423.798583984375 L 934.0787353515625 429.5714721679688 L 929.0795288085938 432.4583740234375 L 917.8028564453125 438.9703674316406 L 906.51171875 445.4844360351563 L 895.2242431640625 451.9964904785156 L 883.92236328125 458.5105895996094 L 872.609619140625 465.0246276855469 L 861.3004760742188 471.53662109375 L 850.0078125 478.0869750976563 L 838.6567993164063 484.616943359375 L 827.3534545898438 491.1672668457031 L 815.7693481445313 497.7776794433594 L 804.4818115234375 504.3127746582031 L 798.1187744140625 508.0052795410156 L 798.1187744140625 515.4442138671875 L 798.1187744140625 528.6527709960938 L 798.1187744140625 541.861328125 L 798.1187744140625 555.06982421875 L 798.1187744140625 568.2783203125 L 798.1187744140625 581.48681640625 L 798.1187744140625 587.2388916015625 L 793.1466674804688 590.1309204101563 L 781.783203125 596.7406005859375 L 770.4072265625 603.3929443359375 L 759.4080200195313 609.70654296875 L 744.4299926757813 618.3035888671875 L 744.4299926757813 601.03369140625 L 744.4299926757813 587.8143310546875 L 744.4299926757813 574.594970703125 L 744.4299926757813 561.37548828125 L 744.4299926757813 548.1561889648438 L 744.4299926757813 534.9368896484375 L 744.4299926757813 521.7174682617188 L 744.4299926757813 508.4872436523438 L 744.4299926757813 495.267822265625 L 744.4299926757813 482.0375671386719 L 744.4299926757813 468.807373046875 L 744.4299926757813 455.5880432128906 L 744.4299926757813 442.3577880859375 L 744.4299926757813 429.1275939941406 L 744.4299926757813 402.6562194824219 L 744.4299926757813 396.8557434082031 L 749.4650268554688 393.975830078125 L 760.8502197265625 387.4638061523438 L 772.220947265625 380.9539184570313 L 783.5952758789063 374.4418334960938 L 794.9407348632813 367.9339599609375 L 806.2933349609375 361.4219970703125 L 817.6459350585938 354.909912109375 L 828.9696655273438 348.4020385742188 L 840.300537109375 341.8900146484375 L 851.6314697265625 335.3779907226563 L 862.9334106445313 328.8701782226563 L 874.2137451171875 322.3623046875 L 885.530029296875 315.8461303710938 L 896.8104248046875 309.3382568359375 L 919.3850708007813 296.5748901367188 L 934.3562622070313 288.1107177734375 Z M 880.3790283203125 397.8193359375 L 880.3790283203125 390.4136962890625 L 880.3790283203125 381.419677734375 L 872.7615356445313 385.805908203125 L 861.452392578125 392.3180541992188 L 850.1143798828125 398.8341369628906 L 838.783447265625 405.34619140625 L 827.45263671875 411.8581848144531 L 816.0925903320313 418.3743896484375 L 804.754638671875 424.88427734375 L 798.422607421875 428.516357421875 L 798.422607421875 435.9434204101563 L 798.422607421875 445.0352478027344 L 806.12109375 440.5824890136719 L 817.4594116210938 434.0182800292969 L 828.8177490234375 427.4903869628906 L 840.1487426757813 420.9783935546875 L 851.4794921875 414.4664306640625 L 862.7815551757813 407.9585266113281 L 874.076171875 401.4485778808594 L 880.3790283203125 397.8193359375 Z" stroke="none" fill="#d2aa62"/>
        </g>
      </g>
      <g id="Path_67" data-name="Path 67" transform="translate(887.079 569.344)" fill="none">
        <path d="M34.606,230.373,17.39,219.916-.466,209.071V140l35.072,19.723Z" stroke="none"/>
        <path d="M 34.60594940185547 230.372802734375 L 34.60594940185547 159.724609375 L -0.4663007855415344 140.001220703125 L -0.4663007855415344 209.07080078125 L 17.39032363891602 219.9164428710938 L 34.60594940185547 230.372802734375 M 43.60594940185547 246.3692016601563 L 29.93384552001953 238.0650939941406 L 12.71821975708008 227.6087341308594 L -5.138404846191406 216.7630920410156 L -9.466300964355469 214.1344451904297 L -9.466300964355469 209.07080078125 L -9.466300964355469 140.001220703125 L -9.466300964355469 124.6144104003906 L 3.94524097442627 132.1566009521484 L 39.01749038696289 151.8799896240234 L 43.60594940185547 154.4603729248047 L 43.60594940185547 159.724609375 L 43.60594940185547 230.372802734375 L 43.60594940185547 246.3692016601563 Z" stroke="none" fill="#d2aa62"/>
      </g>
    </g>
  </g>
</svg>
