<svg xmlns="http://www.w3.org/2000/svg" xmlns:xlink="http://www.w3.org/1999/xlink" width="620" height="620" viewBox="0 0 620 620">
  <defs>
    <clipPath id="clip-path">
      <rect id="Rectangle_165" data-name="Rectangle 165" width="620" height="620" transform="translate(673 230)" stroke="#707070" stroke-width="1"/>
    </clipPath>
  </defs>
  <g id="Mask_Group_8" data-name="Mask Group 8" transform="translate(-673 -230)" clip-path="url(#clip-path)">
    <g id="Group_13" data-name="Group 13" transform="translate(-199.462 -165)">
      <g id="hp3" transform="translate(434 456)">
        <g id="Path_20" data-name="Path 20" transform="translate(562 45.344)">
          <path id="Path_5" data-name="Path 5" d="M175.051,445.424l-7.537-4.387-11.35-6.606-11.337-6.6-11.339-6.6-2.479-1.442L131,416.931l-.033-13.18-.032-13.18-.022-13.184-.032-13.165-.033-13.18-.025-10.309L121.98,335.6l-11.325-6.561-11.316-6.552-11.308-6.553L65.438,302.83l-11.292-6.54-11.275-6.53-3.746-2.174.011,4.452.033,13.136.033,13.148.043,13.143.033,13.141.033,13.137.021,8.718-7.536-4.384-11.263-6.552L9.281,348.984l-2.487-1.445v-.011l-8.765-5.1-2.48-1.441-.007-2.869L-4.491,325l-.043-13.121-.033-13.141L-4.6,285.608l-.043-13.133-.032-13.14L-4.708,246.2l-.043-13.132-.033-13.141-.032-13.137-.043-13.132L-4.892,180.5l-.033-13.148-.043-13.132L-5,141.072l-.021-8.678L2.5,136.728l11.252,6.487L25.011,149.7l11.275,6.5,2.5,1.439.007,2.881.033,13.158.032,13.148L38.9,199.98l.033,13.162.033,13.148.025,10.271,8.784,5.08,11.286,6.531,11.285,6.53,11.294,6.53,11.3,6.529h0l0,0,11.317,6.552,11.314,6.539,11.32,6.554,3.813,2.2-.012-4.491-.032-13.191-.033-13.191-.021-13.2-.033-13.187-.032-13.19-.022-8.675,7.517,4.329,11.339,6.531,11.36,6.541,11.352,6.542,2.5,1.439.007,2.881.032,13.212.022,13.206.033,13.2.032,13.2.022,13.206.032,13.187.033,13.2.021,13.206.033,13.187.032,13.19.022,13.2.033,13.187.032,13.191.022,13.2.032,13.186Z"/>
          <path id="Path_6" data-name="Path 6" d="M170.029,436.716,170,423.525l-.022-13.191-.032-13.191-.033-13.19-.022-13.191-.032-13.191-.033-13.191-.021-13.2-.033-13.2-.032-13.191-.022-13.2-.032-13.2-.033-13.2-.022-13.2-.032-13.213-11.35-6.541-11.36-6.541-11.339-6.531.032,13.191.033,13.191.021,13.191.033,13.191.032,13.19.033,13.18-11.339-6.552-11.317-6.552-11.317-6.541L90.44,272.091,79.134,265.56l-11.3-6.53L56.554,252.5l-11.285-6.531L33.995,239.45,33.963,226.3l-.033-13.147L33.9,200l-.043-13.158-.032-13.148-.033-13.158-11.274-6.5-11.263-6.487L0,141.06l.033,13.148.043,13.136.032,13.148.032,13.147.043,13.137.032,13.136.032,13.137.043,13.137.032,13.136.032,13.137L.4,285.6l.032,13.125.032,13.137.043,13.126L.541,338.11l11.252,6.541v.011L23.046,351.2l11.263,6.552-.033-13.137-.033-13.136L34.2,318.334l-.033-13.147-.033-13.137L34.1,278.892l11.274,6.541,11.274,6.531,11.3,6.541,22.591,13.1,11.306,6.552,11.317,6.552,11.328,6.563,11.329,6.574.032,13.18.033,13.18.032,13.169.022,13.18.032,13.18.033,13.18,11.339,6.6,11.338,6.6,11.35,6.606m10.043,17.416L165,445.358l-11.35-6.606-11.336-6.594-11.339-6.6-4.958-2.884L126,416.943l-.033-13.179-.032-13.181-.022-13.188-.032-13.161-.033-13.18-.018-7.437-6.362-3.692-11.322-6.559-11.314-6.551-11.31-6.554L62.929,307.155,51.64,300.617l-7.494-4.34.022,8.885L44.2,318.31l.043,13.139.033,13.145.032,13.136.043,17.436L29.281,366.4l-11.263-6.552-11.25-6.54-11.259-6.556-4.954-2.884-.014-5.733-.032-13.125-.043-13.118-.032-13.145L-9.6,285.62l-.043-13.128-.033-13.145-.032-13.137-.043-13.128-.033-13.145L-9.816,206.8l-.043-13.128-.033-13.156-.032-13.147-.043-13.128L-10,141.085l-.043-17.358L4.995,132.4l11.252,6.487,11.26,6.485,11.277,6.5,4.992,2.878.014,5.761.033,13.159.032,13.147.043,13.15.033,13.167.033,13.147.018,7.4,6.294,3.64,11.287,6.532,11.285,6.531L84.139,256.9l11.3,6.528,11.326,6.558,11.311,6.537,7.609,4.406-.022-8.99-.032-13.191-.022-13.2-.033-13.182-.032-13.191-.043-17.348,15.034,8.658,11.338,6.53,11.36,6.541,11.353,6.543,4.993,2.877.014,5.763.032,13.212.022,13.21.033,13.193.032,13.2.022,13.21.032,13.182.033,13.2.021,13.21.033,13.182.032,13.191.022,13.2.032,13.183.033,13.191.022,13.2.032,13.182Z" fill="#d2aa62"/>
        </g>
        <g id="Path_21" data-name="Path 21" transform="translate(10.61 -118.876)">
          <path id="Path_7" data-name="Path 7" d="M749.43,609.669V399.756l2.518-1.44,11.385-6.512,11.372-6.511,11.375-6.512,11.349-6.51,11.352-6.512,11.353-6.512,11.327-6.51,11.331-6.512,11.331-6.512,11.3-6.51,11.284-6.51,11.313-6.514,11.284-6.51.019-.011.019-.01,22.5-12.721,7.485-4.232-.024,8.6-.076,26.341v13.176l-.076,26.331v13.176l-.076,26.33v16.037l-2.5,1.443L915.3,434.64l-11.289,6.514-11.287,6.512-11.3,6.513-11.311,6.513-11.3,6.509L847.5,473.762l-.008,0-.007.005-11.318,6.511-11.32,6.559-.014.009-.014.008-11.512,6.569-11.325,6.556h0l-8.862,5.143v79.237l-2.486,1.446-11.364,6.61-11.386,6.658-.017.01-.018.01-10.929,6.273ZM793.423,425.62V453.7l3.849-2.226,11.353-6.566,11.34-6.566.006,0,.007,0,11.331-6.512,11.331-6.512,11.331-6.512,11.306-6.509,11.3-6.511,8.806-5.071V372.769l-3.8,2.191-11.311,6.513-11.31,6.512L847.623,394.5l-11.331,6.512-11.331,6.512L813.6,414.037l-11.34,6.511Z"/>
          <path id="Path_8" data-name="Path 8" d="M924.307,305.28,901.808,318l-11.288,6.512-11.309,6.512-11.288,6.512-11.309,6.512-11.331,6.512-11.33,6.512-11.331,6.512L811.269,370.1l-11.353,6.512-11.352,6.512-11.375,6.512-11.374,6.512-11.385,6.512V601.034l10.929-6.274,11.4-6.664,11.364-6.609V502.246l11.352-6.587,11.342-6.567,11.526-6.577,11.331-6.566,11.32-6.512,11.32-6.566,11.31-6.512,11.309-6.512,11.3-6.512,11.288-6.512,11.287-6.512,11.277-6.512V410.633l.076-26.33V371.127l.076-26.33V331.621l.076-26.341M788.423,462.371V422.724l11.352-6.512,11.342-6.512,11.353-6.512,11.331-6.512,11.331-6.512,11.33-6.512,11.31-6.512,11.309-6.512,11.3-6.512V403.6l-11.309,6.512-11.3,6.512-11.31,6.512-11.33,6.512L833.8,436.161l-11.331,6.512-11.342,6.566L799.775,455.8l-11.352,6.566m145.933-174.26-.049,17.2-.076,26.341V344.8l-.076,26.359V384.3l-.076,26.359v18.909l-5,2.887L917.8,438.97l-11.291,6.514L895.224,452l-11.3,6.515-11.312,6.514-11.31,6.512-11.292,6.55-11.351,6.53-11.3,6.55-11.584,6.611-11.287,6.535-6.363,3.692v79.234l-4.972,2.892-11.364,6.61-11.376,6.652-11,6.314-14.978,8.6V396.856l5.035-2.88,11.385-6.512,11.371-6.51,11.374-6.512,11.346-6.508,11.352-6.512,11.353-6.512L828.97,348.4,840.3,341.89l11.33-6.512,11.3-6.508,11.281-6.508,11.316-6.516,11.28-6.508,22.575-12.763ZM880.379,397.819v-16.4l-7.617,4.386-11.31,6.512-11.338,6.516-11.331,6.512-11.33,6.512-11.36,6.516-11.338,6.51-6.332,3.632v16.519l7.7-4.453,11.338-6.564,11.359-6.528,11.331-6.512,11.33-6.512,11.3-6.507,11.294-6.51Z" fill="#d2aa62"/>
        </g>
        <path id="Path_22" data-name="Path 22" d="M940.735,298.717C879.068,334.3,814.688,371.506,753.021,407.1c-14.576-21.034-31.854-46.093-46.362-67.127h0L660.33,272.839c60.927-35.2,126.866-73.227,187.748-108.4C878.5,208.549,910.3,254.608,940.735,298.717Z" transform="translate(-5.818 -146.674)" stroke="#d2aa62" stroke-width="11"/>
        <path id="Path_23" data-name="Path 23" d="M861.378,164.46C799.89,199.943,733.352,238.3,671.91,273.814l-94.09,26.815c29.638-17.087,65.044-37.591,94.74-54.677l47.353-27.339h0l23.676-13.669h0l23.665-13.669,35.338-10.036Z" transform="translate(-15.82 -148.81)" stroke="#d2aa62" stroke-width="11"/>
        <g id="Path_58" data-name="Path 58" transform="translate(10.61 -118.876)">
          <path id="Path_9" data-name="Path 9" d="M749.43,609.669V399.756l2.518-1.44,11.385-6.512,11.372-6.511,11.375-6.512,11.349-6.51,11.352-6.512,11.353-6.512,11.327-6.51,11.331-6.512,11.331-6.512,11.3-6.51,11.284-6.51,11.313-6.514,11.284-6.51.019-.011.019-.01,22.5-12.721,7.485-4.232-.024,8.6-.076,26.341v13.176l-.076,26.331v13.176l-.076,26.33v16.037l-2.5,1.443L915.3,434.64l-11.289,6.514-11.287,6.512-11.3,6.513-11.311,6.513-11.3,6.509L847.5,473.762l-.008,0-.007.005-11.318,6.511-11.32,6.559-.014.009-.014.008-11.512,6.569-11.325,6.556h0l-8.862,5.143v79.237l-2.486,1.446-11.364,6.61-11.386,6.658-.017.01-.018.01-10.929,6.273ZM793.423,425.62V453.7l3.849-2.226,11.353-6.566,11.34-6.566.006,0,.007,0,11.331-6.512,11.331-6.512,11.331-6.512,11.306-6.509,11.3-6.511,8.806-5.071V372.769l-3.8,2.191-11.311,6.513-11.31,6.512L847.623,394.5l-11.331,6.512-11.331,6.512L813.6,414.037l-11.34,6.511Z"/>
          <path id="Path_10" data-name="Path 10" d="M924.307,305.28,901.808,318l-11.288,6.512-11.309,6.512-11.288,6.512-11.309,6.512-11.331,6.512-11.33,6.512-11.331,6.512L811.269,370.1l-11.353,6.512-11.352,6.512-11.375,6.512-11.374,6.512-11.385,6.512V601.034l10.929-6.274,11.4-6.664,11.364-6.609V502.246l11.352-6.587,11.342-6.567,11.526-6.577,11.331-6.566,11.32-6.512,11.32-6.566,11.31-6.512,11.309-6.512,11.3-6.512,11.288-6.512,11.287-6.512,11.277-6.512V410.633l.076-26.33V371.127l.076-26.33V331.621l.076-26.341M788.423,462.371V422.724l11.352-6.512,11.342-6.512,11.353-6.512,11.331-6.512,11.331-6.512,11.33-6.512,11.31-6.512,11.309-6.512,11.3-6.512V403.6l-11.309,6.512-11.3,6.512-11.31,6.512-11.33,6.512L833.8,436.161l-11.331,6.512-11.342,6.566L799.775,455.8l-11.352,6.566m145.933-174.26-.049,17.2-.076,26.341V344.8l-.076,26.359V384.3l-.076,26.359v18.909l-5,2.887L917.8,438.97l-11.291,6.514L895.224,452l-11.3,6.515-11.312,6.514-11.31,6.512-11.292,6.55-11.351,6.53-11.3,6.55-11.584,6.611-11.287,6.535-6.363,3.692v79.234l-4.972,2.892-11.364,6.61-11.376,6.652-11,6.314-14.978,8.6V396.856l5.035-2.88,11.385-6.512,11.371-6.51,11.374-6.512,11.346-6.508,11.352-6.512,11.353-6.512L828.97,348.4,840.3,341.89l11.33-6.512,11.3-6.508,11.281-6.508,11.316-6.516,11.28-6.508,22.575-12.763ZM880.379,397.819v-16.4l-7.617,4.386-11.31,6.512-11.338,6.516-11.331,6.512-11.33,6.512-11.36,6.516-11.338,6.51-6.332,3.632v16.519l7.7-4.453,11.338-6.564,11.359-6.528,11.331-6.512,11.33-6.512,11.3-6.507,11.294-6.51Z" fill="#d2aa62"/>
        </g>
      </g>
    </g>
  </g>
</svg>
