<svg xmlns="http://www.w3.org/2000/svg" width="1489.79" height="489.115" viewBox="0 0 1489.79 489.115">
  <g id="Group_16" data-name="Group 16" transform="translate(-209.957 -301.361)">
    <g id="hp3" transform="translate(237 359)">
      <g id="Path_20" data-name="Path 20" transform="translate(-17 -22.656)" fill="none">
        <path d="M170.029,436.716l-11.35-6.606-11.339-6.6L136,416.919l-.032-13.18-.033-13.18-.022-13.18-.032-13.169-.032-13.18-.033-13.18-11.328-6.574-11.328-6.563-11.317-6.552-11.306-6.552L67.947,298.5l-11.3-6.541-11.274-6.53L34.1,278.892l.032,13.158.032,13.137.032,13.147.043,13.148.032,13.137.032,13.137L23.046,351.2l-11.252-6.541v-.011L.541,338.11.509,324.984.466,311.858.433,298.721.4,285.6.357,272.459.325,259.322.292,246.186.249,233.049.217,219.912.184,206.776.141,193.639.108,180.492.076,167.344.032,154.207,0,141.06l11.252,6.487,11.263,6.487,11.274,6.5.032,13.158.032,13.147L33.9,200l.032,13.158.032,13.147L34,239.45l11.274,6.52,11.285,6.53,11.285,6.53,11.3,6.53,11.306,6.53,11.317,6.552,11.317,6.541,11.317,6.552,11.339,6.552-.032-13.18-.033-13.191-.032-13.191-.022-13.191-.032-13.191-.032-13.191,11.339,6.53,11.361,6.541,11.35,6.541.032,13.212.022,13.2.032,13.2.033,13.2.022,13.2.032,13.191.033,13.2.022,13.2.032,13.191.033,13.191.022,13.191.032,13.191.032,13.191L170,423.525Z" stroke="none"/>
        <path d="M 170.0291748046875 436.7158203125 L 169.9966735839844 423.5250549316406 L 169.9750366210938 410.3342590332031 L 169.9425354003906 397.1434020996094 L 169.9100341796875 383.9526672363281 L 169.8883819580078 370.7618713378906 L 169.8558807373047 357.571044921875 L 169.8234252929688 344.3802490234375 L 169.8017272949219 331.1786193847656 L 169.7692260742188 317.9770202636719 L 169.7367858886719 304.7861633300781 L 169.7151336669922 291.5845031738281 L 169.6826324462891 278.3829040527344 L 169.6501312255859 265.1813049316406 L 169.6284790039063 251.9796600341797 L 169.5959777832031 238.7672119140625 L 158.2462310791016 232.2259521484375 L 146.8857269287109 225.6847076416016 L 135.5468292236328 219.1543121337891 L 135.5793304443359 232.3451080322266 L 135.6117858886719 245.5358581542969 L 135.6334838867188 258.7267150878906 L 135.6659240722656 271.9175720214844 L 135.6984252929688 285.1082458496094 L 135.7309265136719 298.2882690429688 L 124.3920288085938 291.7362060546875 L 113.0748291015625 285.1841125488281 L 101.7575759887695 278.6428527832031 L 90.44037628173828 272.0907592773438 L 79.13397979736328 265.5603637695313 L 67.83837890625 259.0299682617188 L 56.55363082885742 252.49951171875 L 45.26892852783203 245.9691162109375 L 33.99497985839844 239.4495086669922 L 33.96252822875977 226.302001953125 L 33.93003082275391 213.1545562744141 L 33.89752960205078 199.9962158203125 L 33.85422897338867 186.8379058837891 L 33.82173156738281 173.6904602050781 L 33.78923034667969 160.5321655273438 L 22.51532936096191 154.0342102050781 L 11.25222969055176 147.5471038818359 L -2.022705120907631e-05 141.0600128173828 L 0.03247977420687675 154.2075042724609 L 0.07582977414131165 167.3441619873047 L 0.1082797721028328 180.4916076660156 L 0.1407797783613205 193.6391143798828 L 0.1841297745704651 206.7757568359375 L 0.2165797799825668 219.9124145507813 L 0.2490797787904739 233.0490112304688 L 0.2924297749996185 246.1856536865234 L 0.3248797655105591 259.3222961425781 L 0.3573797643184662 272.4590148925781 L 0.400729775428772 285.5956726074219 L 0.4331797659397125 298.7214660644531 L 0.4656797647476196 311.8581237792969 L 0.509029746055603 324.9839477539063 L 0.541479766368866 338.1097717285156 L 11.79372978210449 344.6509704589844 L 11.79372978210449 344.661865234375 L 23.04598045349121 351.2030944824219 L 34.30907821655273 357.7551574707031 L 34.27658081054688 344.6184997558594 L 34.24407958984375 331.4818725585938 L 34.20077896118164 318.3343505859375 L 34.16828155517578 305.1868591308594 L 34.13578033447266 292.0502624511719 L 34.10327911376953 278.8919677734375 L 45.37723159790039 285.4331665039063 L 56.65113067626953 291.963623046875 L 67.94667816162109 298.5048522949219 L 90.53782653808594 311.6090087890625 L 101.8442306518555 318.1610717773438 L 113.1614303588867 324.7131958007813 L 124.4894790649414 331.276123046875 L 135.8175811767578 337.8498229980469 L 135.8500823974609 351.0298156738281 L 135.8825225830078 364.209716796875 L 135.9150238037109 377.3788452148438 L 135.9366760253906 390.5588684082031 L 135.9691772460938 403.7388610839844 L 136.0016784667969 416.9188232421875 L 147.340576171875 423.5142211914063 L 158.6794738769531 430.109619140625 L 170.0291748046875 436.7158203125 M 180.0721282958984 454.1320190429688 L 164.9986724853516 445.3583984375 L 153.6489868164063 438.752197265625 L 142.3126831054688 432.1582641601563 L 130.9737854003906 425.5628662109375 L 126.0158309936523 422.6790466308594 L 126.0017318725586 416.9434509277344 L 125.9692306518555 403.7635192871094 L 125.9367294311523 390.58349609375 L 125.9150314331055 377.3952941894531 L 125.8825759887695 364.2344055175781 L 125.8501281738281 351.0544128417969 L 125.831787109375 343.6168518066406 L 119.4703826904297 339.9253234863281 L 108.1484832763672 333.365966796875 L 96.83383178710938 326.8153076171875 L 85.52388000488281 320.2611999511719 L 62.92913055419922 307.1549682617188 L 51.63977813720703 300.6173095703125 L 44.14624786376953 296.2766418457031 L 44.16822814941406 305.162109375 L 44.20072937011719 318.3096618652344 L 44.2440299987793 331.4489135742188 L 44.27653121948242 344.59375 L 44.30902862548828 357.7304077148438 L 44.35218048095703 375.1664733886719 L 29.28072929382324 366.3990173339844 L 18.01762962341309 359.8469543457031 L 6.767979621887207 353.3071594238281 L -4.490520000457764 346.75146484375 L -9.444320678710938 343.8669128417969 L -9.458470344543457 338.1344604492188 L -9.490920066833496 325.0086669921875 L -9.534270286560059 311.8911437988281 L -9.566770553588867 298.7462158203125 L -9.599220275878906 285.620361328125 L -9.642570495605469 272.4920043945313 L -9.675069808959961 259.3470458984375 L -9.707520484924316 246.2103576660156 L -9.750869750976563 233.0820159912109 L -9.783370018005371 219.9371643066406 L -9.815820693969727 206.8004608154297 L -9.859169960021973 193.6721038818359 L -9.891670227050781 180.5163116455078 L -9.92411994934082 167.3688659667969 L -9.967470169067383 154.2405090332031 L -9.999970436096191 141.0847015380859 L -10.04292011260986 123.7273101806641 L 4.994579792022705 132.3966064453125 L 16.24682998657227 138.8837127685547 L 27.50627899169922 145.3687591552734 L 38.78287887573242 151.8682098388672 L 43.77497863769531 154.7455596923828 L 43.78918075561523 160.5074615478516 L 43.82167816162109 173.6657562255859 L 43.85417938232422 186.8132019042969 L 43.89748001098633 199.9633026123047 L 43.92998123168945 213.1298522949219 L 43.96247863769531 226.2773132324219 L 43.98073196411133 233.6724395751953 L 50.27502822875977 237.3123626708984 L 61.5623779296875 243.8443145751953 L 72.84712982177734 250.374755859375 L 84.13907623291016 256.9030456542969 L 95.44187927246094 263.4313659667969 L 106.7679824829102 269.9886169433594 L 118.0789794921875 276.5262451171875 L 125.6881256103516 280.9315795898438 L 125.6659774780273 271.9421997070313 L 125.6335296630859 258.7513122558594 L 125.6117782592773 245.5523071289063 L 125.5793762207031 232.3697052001953 L 125.5468826293945 219.178955078125 L 125.5041275024414 201.8305053710938 L 140.5375823974609 210.4887084960938 L 151.8764801025391 217.0191040039063 L 163.236083984375 223.5598602294922 L 174.5893859863281 230.1031646728516 L 179.581787109375 232.9804534912109 L 179.5959320068359 238.7426147460938 L 179.6284332275391 251.9550628662109 L 179.6501312255859 265.1649169921875 L 179.6825866699219 278.3583068847656 L 179.7150726318359 291.5599060058594 L 179.7367858886719 304.7697448730469 L 179.7691802978516 317.9524230957031 L 179.8016815185547 331.1540222167969 L 179.8234252929688 344.3638000488281 L 179.8558349609375 357.5464477539063 L 179.8883361816406 370.7372131347656 L 179.9100341796875 383.9362487792969 L 179.9424743652344 397.1187438964844 L 179.9749755859375 410.3096008300781 L 179.9966735839844 423.5086669921875 L 180.0291290283203 436.691162109375 L 180.0721282958984 454.1320190429688 Z" stroke="none" fill="#ffffff"/>
      </g>
      <g id="Path_21" data-name="Path 21" transform="translate(-568.39 -186.876)" fill="none">
        <path d="M901.808,318l-11.288,6.512-11.309,6.512h0l-11.287,6.512-11.309,6.512-11.331,6.512h0l-11.331,6.512-11.331,6.512L811.269,370.1l-11.353,6.512-11.353,6.512-11.374,6.512-11.374,6.512-11.385,6.512V601.034l10.929-6.273,11.4-6.664,11.363-6.61v-79.24l11.353-6.588,11.342-6.566,11.526-6.577,11.331-6.566,11.32-6.512,11.32-6.566,11.309-6.512,11.309-6.512,11.3-6.512,11.288-6.512,11.288-6.512,11.277-6.512V410.633l.076-26.33V371.127l.076-26.33V331.621l.076-26.341Zm-11.429,59.238V403.6l-11.309,6.512-11.3,6.512-11.309,6.512-11.331,6.512L833.8,436.161l-11.331,6.512-11.342,6.566-11.353,6.566-11.353,6.566V422.724l11.353-6.512,11.342-6.512,11.353-6.512,11.331-6.512,11.331-6.512,11.331-6.512,11.309-6.512,11.309-6.512,11.3-6.512Z" stroke="none"/>
        <path d="M 924.306640625 305.2799682617188 L 901.8076171875 318.0001220703125 L 890.5200805664063 324.5121459960938 L 879.2109375 331.024169921875 L 867.9234619140625 337.5361938476563 L 856.6143188476563 344.0481567382813 L 845.2833862304688 350.5601806640625 L 833.9525146484375 357.0722045898438 L 822.6216430664063 363.5841674804688 L 811.2689819335938 370.0962524414063 L 799.9163818359375 376.6082153320313 L 788.5638427734375 383.1201782226563 L 777.189453125 389.6322631835938 L 765.815185546875 396.1442260742188 L 754.4299926757813 402.6562194824219 L 754.4299926757813 429.1275939941406 L 754.4299926757813 442.3577880859375 L 754.4299926757813 455.5880432128906 L 754.4299926757813 468.807373046875 L 754.4299926757813 482.0375671386719 L 754.4299926757813 495.267822265625 L 754.4299926757813 508.4872436523438 L 754.4299926757813 521.7174682617188 L 754.4299926757813 534.9368896484375 L 754.4299926757813 548.1561889648438 L 754.4299926757813 561.37548828125 L 754.4299926757813 574.594970703125 L 754.4299926757813 587.8143310546875 L 754.4299926757813 601.03369140625 L 765.3593139648438 594.760498046875 L 776.7553100585938 588.096435546875 L 788.1187744140625 581.48681640625 L 788.1187744140625 568.2783203125 L 788.1187744140625 555.06982421875 L 788.1187744140625 541.861328125 L 788.1187744140625 528.6527709960938 L 788.1187744140625 515.4442138671875 L 788.1187744140625 502.2464904785156 L 799.471435546875 495.6585388183594 L 810.813232421875 489.0922241210938 L 822.3394775390625 482.5150756835938 L 833.6703491210938 475.9488830566406 L 844.9903564453125 469.4368896484375 L 856.3104248046875 462.8706359863281 L 867.6195678710938 456.358642578125 L 878.9287109375 449.8466186523438 L 890.2269897460938 443.3346252441406 L 901.5145263671875 436.8225708007813 L 912.8020629882813 430.3105773925781 L 924.0787353515625 423.798583984375 L 924.0787353515625 410.6334228515625 L 924.1546630859375 384.30322265625 L 924.1546630859375 371.1272583007813 L 924.2306518554688 344.7970581054688 L 924.2306518554688 331.6210327148438 L 924.306640625 305.2799682617188 M 788.422607421875 462.371337890625 L 788.422607421875 449.1519775390625 L 788.422607421875 435.9434204101563 L 788.422607421875 422.7240905761719 L 799.7753295898438 416.2120666503906 L 811.1170043945313 409.7000732421875 L 822.4697265625 403.1880798339844 L 833.8005981445313 396.676025390625 L 845.1315307617188 390.1640014648438 L 856.4623413085938 383.6520385742188 L 867.7715454101563 377.1399536132813 L 879.0806884765625 370.6279907226563 L 890.3790283203125 364.1160278320313 L 890.3790283203125 377.2377319335938 L 890.3790283203125 390.4136962890625 L 890.3790283203125 403.6005249023438 L 879.06982421875 410.1125183105469 L 867.7715454101563 416.6245422363281 L 856.4623413085938 423.1365356445313 L 845.1315307617188 429.6485290527344 L 833.8005981445313 436.1605224609375 L 822.4697265625 442.6725158691406 L 811.1278686523438 449.2388305664063 L 799.7753295898438 455.8050842285156 L 788.422607421875 462.371337890625 M 934.3562622070313 288.1107177734375 L 934.3065795898438 305.308837890625 L 934.2305908203125 331.64990234375 L 934.2306518554688 344.7970581054688 L 934.1546020507813 371.1561279296875 L 934.1546630859375 384.30322265625 L 934.0786743164063 410.6622924804688 L 934.0787353515625 423.798583984375 L 934.0787353515625 429.5714721679688 L 929.0795288085938 432.4583740234375 L 917.8028564453125 438.9703674316406 L 906.51171875 445.4844360351563 L 895.2242431640625 451.9964904785156 L 883.92236328125 458.5105895996094 L 872.609619140625 465.0246276855469 L 861.3004760742188 471.53662109375 L 850.0078125 478.0869750976563 L 838.6567993164063 484.616943359375 L 827.3534545898438 491.1672668457031 L 815.7693481445313 497.7776794433594 L 804.4818115234375 504.3127746582031 L 798.1187744140625 508.0052795410156 L 798.1187744140625 515.4442138671875 L 798.1187744140625 528.6527709960938 L 798.1187744140625 541.861328125 L 798.1187744140625 555.06982421875 L 798.1187744140625 568.2783203125 L 798.1187744140625 581.48681640625 L 798.1187744140625 587.2388916015625 L 793.1466674804688 590.1309204101563 L 781.783203125 596.7406005859375 L 770.4072265625 603.3929443359375 L 759.4080200195313 609.70654296875 L 744.4299926757813 618.3035888671875 L 744.4299926757813 601.03369140625 L 744.4299926757813 587.8143310546875 L 744.4299926757813 574.594970703125 L 744.4299926757813 561.37548828125 L 744.4299926757813 548.1561889648438 L 744.4299926757813 534.9368896484375 L 744.4299926757813 521.7174682617188 L 744.4299926757813 508.4872436523438 L 744.4299926757813 495.267822265625 L 744.4299926757813 482.0375671386719 L 744.4299926757813 468.807373046875 L 744.4299926757813 455.5880432128906 L 744.4299926757813 442.3577880859375 L 744.4299926757813 429.1275939941406 L 744.4299926757813 402.6562194824219 L 744.4299926757813 396.8557434082031 L 749.4650268554688 393.975830078125 L 760.8502197265625 387.4638061523438 L 772.220947265625 380.9539184570313 L 783.5952758789063 374.4418334960938 L 794.9407348632813 367.9339599609375 L 806.2933349609375 361.4219970703125 L 817.6459350585938 354.909912109375 L 828.9696655273438 348.4020385742188 L 840.300537109375 341.8900146484375 L 851.6314697265625 335.3779907226563 L 862.9334106445313 328.8701782226563 L 874.2137451171875 322.3623046875 L 885.530029296875 315.8461303710938 L 896.8104248046875 309.3382568359375 L 919.3850708007813 296.5748901367188 L 934.3562622070313 288.1107177734375 Z M 880.3790283203125 397.8193359375 L 880.3790283203125 390.4136962890625 L 880.3790283203125 381.419677734375 L 872.7615356445313 385.805908203125 L 861.452392578125 392.3180541992188 L 850.1143798828125 398.8341369628906 L 838.783447265625 405.34619140625 L 827.45263671875 411.8581848144531 L 816.0925903320313 418.3743896484375 L 804.754638671875 424.88427734375 L 798.422607421875 428.516357421875 L 798.422607421875 435.9434204101563 L 798.422607421875 445.0352478027344 L 806.12109375 440.5824890136719 L 817.4594116210938 434.0182800292969 L 828.8177490234375 427.4903869628906 L 840.1487426757813 420.9783935546875 L 851.4794921875 414.4664306640625 L 862.7815551757813 407.9585266113281 L 874.076171875 401.4485778808594 L 880.3790283203125 397.8193359375 Z" stroke="none" fill="#ffffff"/>
      </g>
      <path id="Path_22" data-name="Path 22" d="M940.735,298.717C879.068,334.3,814.688,371.506,753.021,407.1c-14.576-21.034-31.854-46.093-46.362-67.127h0L660.33,272.839c60.927-35.195,126.866-73.227,187.748-108.4C878.5,208.549,910.305,254.608,940.735,298.717Z" transform="translate(-584.818 -214.674)" fill="none" stroke="#ffffff" stroke-width="11"/>
      <path id="Path_23" data-name="Path 23" d="M861.378,164.46C799.89,199.943,733.352,238.3,671.91,273.814l-94.09,26.815c29.638-17.087,65.044-37.591,94.74-54.677l47.353-27.339h0l23.676-13.669h0l23.665-13.669,35.338-10.036Z" transform="translate(-594.82 -216.81)" fill="none" stroke="#ffffff" stroke-width="11"/>
    </g>
    <g id="Group_5" data-name="Group 5" transform="translate(0 32)">
      <path id="Path_25" data-name="Path 25" d="M35.576,184.644H67.983V121.076h62.945v63.568h32.407V37.565H130.928V92.408H67.983V37.565H35.576ZM201.558,111.1c0,47.156,33.446,77.278,79.356,77.278S360.27,158.261,360.27,111.1s-33.446-77.278-79.356-77.278S201.558,63.948,201.558,111.1Zm33.654,0c0-27.421,18.073-47.364,45.7-47.364s45.7,19.943,45.7,47.364-18.073,47.364-45.7,47.364S235.212,138.526,235.212,111.1Zm191.742,73.539h32.407V66.233h41.963V37.565H384.991V66.233h41.963Zm135.445,0h32.407V66.233h41.963V37.565H520.436V66.233H562.4Zm106.569,0h32.407V37.565H668.968Zm78.109,0h32.407V79.944h.416l64.191,104.7h42.378V37.565H854.062V139.772h-.415L791.118,37.565h-44.04Zm318.669-87.25H1008.2v29.914h26.383V151.2c-6.024,3.324-16.411,7.271-30.537,7.271-27.629,0-45.7-19.943-45.7-47.364s18.073-47.364,45.7-47.364c16.411,0,27.006,4.778,35.731,13.918l22.851-24.929c-14.75-13.711-35.315-18.9-58.582-18.9-45.91,0-79.356,30.122-79.356,77.278s33.446,77.278,79.356,77.278c21.6,0,42.586-4.155,61.7-14.126Z" transform="translate(634 312.299)" fill="#ffffff"/>
      <line id="Line_7" data-name="Line 7" x2="1030" transform="translate(669.5 539.5)" fill="none" stroke="#ffffff" stroke-width="10"/>
      <path id="Path_24" data-name="Path 24" d="M164.253,114h10.332V74.886h17.466c12.3,0,28.536-5.043,28.536-24.108,0-18.2-14.514-23.862-30.5-23.862h-25.83Zm10.332-77.49h17.466c10.332,0,17.466,4.674,17.466,14.391s-7.134,14.391-17.466,14.391H174.585ZM280.119,114h10.332V74.886h13.284L327.351,114H340.02L315.3,73.9c13.53-2.091,21.771-10.332,21.771-23,0-21.525-17.835-23.985-34.686-23.985H280.119Zm10.332-77.49h14.514C315.051,36.51,326,38.355,326,50.9c0,14.391-14.883,14.391-26.322,14.391h-9.225Zm148.215,79.7c26.445,0,45.51-19.434,45.51-45.756S465.111,24.7,438.666,24.7s-45.51,19.434-45.51,45.756S412.221,116.214,438.666,116.214Zm0-9.594c-20.418,0-34.44-16.113-34.44-36.162S418.248,34.3,438.666,34.3s34.44,16.113,34.44,36.162S459.084,106.62,438.666,106.62Zm142.68-79.7H571.014V87.924c0,9.471-2.583,18.7-14.391,18.7-7.257,0-11.685-4.305-13.038-11.193l-10.332,2.091c2.214,12.423,10.947,18.7,23.247,18.7,18.573,0,24.846-13.038,24.846-24.723ZM645.921,114H702.87v-9.594H656.253v-31H697.7V63.816H656.253V36.51h44.4V26.916H645.921ZM831.774,38.355c-7.38-9.594-18.942-13.653-30.75-13.653-25.83,0-44.28,20.172-44.28,45.756,0,26.445,19.311,45.756,44.28,45.756,13.9,0,25.215-4.8,32.964-15.252l-7.749-6.519a30.678,30.678,0,0,1-25.215,12.177c-19.557,0-33.21-15.99-33.21-36.162,0-19.065,13.776-36.162,33.21-36.162A26.794,26.794,0,0,1,822.8,44.874ZM949.731,26.916h-67.9V36.51h28.782V114h10.332V36.51h28.782Zm55.1,87.084h56.949v-9.594h-46.617v-31h41.451V63.816h-41.451V36.51h44.4V26.916h-54.735Zm115.866,0h10.332V41.676h.246L1181.709,114h13.038V26.916h-10.332V99.24h-.246l-50.43-72.324H1120.7Z" transform="translate(505 554)" fill="#ffffff"/>
    </g>
  </g>
</svg>
